<?xml version="1.0" standalone="no"?>
<!DOCTYPE svg PUBLIC "-//W3C//DTD SVG 20010904//EN"
 "http://www.w3.org/TR/2001/REC-SVG-20010904/DTD/svg10.dtd">
<svg version="1.0" xmlns="http://www.w3.org/2000/svg"
 width="191.000000pt" height="180.000000pt" viewBox="0 0 191.000000 180.000000"
 preserveAspectRatio="xMidYMid meet">

<g transform="translate(0.000000,180.000000) scale(0.100000,-0.100000)"
fill="#000000" stroke="none">
<path d="M0 900 l0 -900 955 0 955 0 0 900 0 900 -955 0 -955 0 0 -900z m680
860 c-19 -13 -30 -13 -30 0 0 6 10 10 23 10 18 0 19 -2 7 -10z m106 3 c-4 -4
-26 -8 -49 -9 -31 -2 -37 0 -22 6 25 11 81 13 71 3z m-169 -19 c-3 -3 -12 -4
-19 -1 -8 3 -5 6 6 6 11 1 17 -2 13 -5z m257 -3 c3 -4 -6 -6 -19 -3 -14 2 -25
6 -25 8 0 8 39 4 44 -5z m-314 -25 c0 -11 -19 -15 -25 -6 -3 5 1 10 9 10 9 0
16 -2 16 -4z m-50 -25 c0 -5 -7 -12 -16 -15 -14 -5 -15 -4 -4 9 14 17 20 19
20 6z m-67 -77 c-16 -13 -30 -18 -32 -12 -5 14 22 35 44 35 11 0 7 -7 -12 -23z
m597 -45 c0 -4 -7 -6 -15 -3 -8 4 -15 10 -15 15 0 4 7 6 15 3 8 -4 15 -10 15
-15z m32 -27 c8 -9 7 -11 -6 -6 -10 4 -16 16 -15 33 1 20 2 22 6 6 3 -11 10
-26 15 -33z m363 28 c-3 -5 -23 -9 -43 -9 l-37 1 30 8 c44 11 57 11 50 0z
m-307 -35 c-3 -3 -9 2 -12 12 -6 14 -5 15 5 6 7 -7 10 -15 7 -18z m101 21
c-12 -10 -60 -16 -54 -6 3 5 18 10 32 10 15 0 24 -2 22 -4z m258 -2 c-3 -3
-12 -4 -19 -1 -8 3 -5 6 6 6 11 1 17 -2 13 -5z m-527 -10 c0 -8 -19 -13 -24
-6 -3 5 1 9 9 9 8 0 15 -2 15 -3z m110 -76 c0 -5 -8 -8 -17 -8 -15 0 -16 2 -3
10 11 7 11 10 2 10 -7 0 -10 5 -6 11 6 11 23 -6 24 -23z m97 6 c-9 -9 -28 6
-21 18 4 6 10 6 17 -1 6 -6 8 -13 4 -17z m368 16 c-3 -5 -10 -10 -16 -10 -5 0
-9 5 -9 10 0 6 7 10 16 10 8 0 12 -4 9 -10z m-510 -20 c3 -5 1 -10 -4 -10 -6
0 -11 5 -11 10 0 6 2 10 4 10 3 0 8 -4 11 -10z m598 3 c-7 -2 -19 -2 -25 0 -7
3 -2 5 12 5 14 0 19 -2 13 -5z m-670 -10 c-7 -2 -19 -2 -25 0 -7 3 -2 5 12 5
14 0 19 -2 13 -5z m147 -3 c0 -5 -2 -10 -4 -10 -3 0 -8 5 -11 10 -3 6 -1 10 4
10 6 0 11 -4 11 -10z m505 -10 c4 -6 -6 -10 -22 -10 -22 0 -25 2 -13 10 19 12
27 12 35 0z m45 0 c-19 -13 -30 -13 -30 0 0 6 10 10 23 10 18 0 19 -2 7 -10z
m69 -16 c2 -2 -6 -2 -18 -1 -11 1 -23 7 -26 14 -4 11 0 11 18 2 12 -6 24 -13
26 -15z m-776 -21 c-7 -2 -19 -2 -25 0 -7 3 -2 5 12 5 14 0 19 -2 13 -5z m105
0 c-15 -2 -42 -2 -60 0 -18 2 -6 4 27 4 33 0 48 -2 33 -4z m-363 -22 c3 -5 2
-12 -3 -15 -5 -3 -9 1 -9 9 0 17 3 19 12 6z m178 2 c-7 -2 -19 -2 -25 0 -7 3
-2 5 12 5 14 0 19 -2 13 -5z m313 -2 c-3 -5 -15 -7 -26 -4 -28 7 -25 13 6 13
14 0 23 -4 20 -9z m111 3 c-3 -3 -12 -4 -19 -1 -8 3 -5 6 6 6 11 1 17 -2 13
-5z m181 -1 c-10 -2 -26 -2 -35 0 -10 3 -2 5 17 5 19 0 27 -2 18 -5z m195 0
c-7 -2 -19 -2 -25 0 -7 3 -2 5 12 5 14 0 19 -2 13 -5z m-864 -16 c-37 -26 -89
-56 -89 -51 0 14 80 67 89 58 2 -2 2 -5 0 -7z m321 -54 c121 -32 150 -51 150
-92 l0 -26 23 27 c23 29 130 88 160 88 16 0 16 -2 -3 -28 -11 -15 -23 -50 -26
-78 -6 -49 -5 -52 30 -86 35 -34 38 -58 6 -37 -8 5 -33 9 -55 9 -59 1 -128 19
-142 37 -11 14 -18 13 -66 -11 -30 -14 -63 -26 -74 -26 -11 0 -34 -5 -50 -11
-17 -5 -57 -9 -89 -7 -54 4 -56 5 -27 12 18 5 46 21 63 37 26 25 30 36 30 80
0 64 -33 102 -98 112 -45 8 -56 24 -19 29 28 4 116 -9 187 -29z m37 21 c-3 -3
-12 -4 -19 -1 -8 3 -5 6 6 6 11 1 17 -2 13 -5z m-287 -11 c0 -4 -16 -21 -35
-39 -32 -29 -35 -36 -35 -88 0 -57 12 -79 56 -104 10 -6 15 -14 11 -18 -15
-16 -188 59 -221 95 -16 18 -15 21 26 54 38 31 171 105 191 107 4 0 7 -3 7 -7z
m818 -9 c24 -5 49 -15 142 -58 13 -6 31 -24 40 -38 13 -25 13 -29 -8 -51 -13
-13 -46 -32 -75 -41 -55 -18 -157 -33 -157 -23 0 3 12 18 26 32 23 23 26 33
22 76 -4 36 -13 58 -32 78 -26 27 -25 47 2 36 8 -3 26 -8 40 -11z m-988 -3 c0
-12 -66 -34 -83 -28 -6 3 -3 6 8 7 11 0 31 7 45 15 30 17 30 17 30 6z m656 -3
c4 -6 3 -8 -4 -4 -6 3 -13 2 -17 -4 -3 -5 -11 -10 -18 -10 -6 0 -2 7 9 15 23
18 21 17 30 3z m-61 -18 c-3 -5 -10 -10 -16 -10 -5 0 -9 5 -9 10 0 6 7 10 16
10 8 0 12 -4 9 -10z m-395 -15 c0 -8 -7 -15 -15 -15 -8 0 -15 7 -15 15 0 8 7
15 15 15 8 0 15 -7 15 -15z m624 0 c-4 -8 -10 -12 -15 -9 -14 8 -10 24 6 24 9
0 12 -6 9 -15z m-545 -51 c-15 -18 -28 -18 -36 2 -8 20 17 36 34 22 10 -8 10
-14 2 -24z m629 19 c-5 -26 -38 -29 -38 -4 0 15 6 21 21 21 14 0 19 -5 17 -17z
m-963 -13 c-3 -5 -14 -10 -23 -9 -14 0 -13 2 3 9 27 11 27 11 20 0z m255 -30
c0 -5 -4 -10 -10 -10 -5 0 -10 5 -10 10 0 6 5 10 10 10 6 0 10 -4 10 -10z
m-190 -111 c0 -9 -57 18 -65 30 -2 5 11 1 30 -7 19 -9 35 -19 35 -23z m58 -19
c22 -7 23 -8 6 -9 -11 -1 -29 6 -40 15 -10 8 -13 12 -6 9 8 -4 26 -11 40 -15z
m462 15 c0 -2 -14 -8 -31 -14 -25 -9 -29 -8 -21 2 10 11 52 21 52 12z m516
-22 c-10 -10 -19 5 -10 18 6 11 8 11 12 0 2 -7 1 -15 -2 -18z m-591 -3 c-3 -5
-10 -10 -16 -10 -5 0 -9 5 -9 10 0 6 7 10 16 10 8 0 12 -4 9 -10z m215 6 c0
-2 -9 -6 -20 -9 -11 -3 -20 -1 -20 4 0 5 9 9 20 9 11 0 20 -2 20 -4z m-594
-61 c10 -8 15 -14 9 -14 -5 0 -19 6 -29 14 -11 8 -15 15 -10 15 6 0 19 -7 30
-15z m304 -19 c0 -2 -7 -7 -16 -10 -8 -3 -12 -2 -9 4 6 10 25 14 25 6z m577
-2 c-3 -3 -12 -4 -19 -1 -8 3 -5 6 6 6 11 1 17 -2 13 -5z m-617 -8 c0 -3 -4
-8 -10 -11 -5 -3 -10 -1 -10 4 0 6 5 11 10 11 6 0 10 -2 10 -4z m330 -16 c8
-5 11 -10 5 -10 -5 0 -17 5 -25 10 -8 5 -10 10 -5 10 6 0 17 -5 25 -10z m95
-10 c3 -5 1 -10 -4 -10 -6 0 -11 5 -11 10 0 6 2 10 4 10 3 0 8 -4 11 -10z
m-28 -6 c-3 -3 -12 -4 -19 -1 -8 3 -5 6 6 6 11 1 17 -2 13 -5z m-512 -13 c3
-5 1 -12 -5 -16 -5 -3 -10 1 -10 9 0 18 6 21 15 7z m165 1 c0 -5 -6 -9 -12 -9
-7 0 -22 -4 -33 -7 -13 -5 -12 -2 5 8 29 17 40 20 40 8z m257 -18 c-3 -3 -12
-4 -19 -1 -8 3 -5 6 6 6 11 1 17 -2 13 -5z m59 -29 c16 -12 16 -14 3 -15 -9 0
-22 7 -29 15 -16 19 0 19 26 0z m104 11 c0 -2 -11 -6 -25 -8 -14 -3 -25 -1
-25 3 0 5 11 9 25 9 14 0 25 -2 25 -4z m80 0 c0 -2 -15 -6 -34 -8 -19 -2 -32
0 -30 4 5 8 64 12 64 4z m-627 -23 c-7 -2 -19 -2 -25 0 -7 3 -2 5 12 5 14 0
19 -2 13 -5z m731 -39 c3 -8 2 -12 -4 -9 -6 3 -10 10 -10 16 0 14 7 11 14 -7z
m31 -69 c9 -40 -3 -27 -15 15 -5 19 -6 29 -1 24 5 -5 12 -22 16 -39z m-712
-102 c-13 -2 -33 -2 -45 0 -13 2 -3 4 22 4 25 0 35 -2 23 -4z m592 -14 c4 -5
-3 -8 -14 -6 -28 4 -34 12 -11 14 11 1 22 -2 25 -8z m-398 -15 c-3 -3 -12 -4
-19 -1 -8 3 -5 6 6 6 11 1 17 -2 13 -5z m40 0 c-3 -3 -12 -4 -19 -1 -8 3 -5 6
6 6 11 1 17 -2 13 -5z m-757 -25 c0 -5 -4 -9 -8 -9 -5 0 -9 7 -9 15 0 8 4 12
9 9 4 -3 8 -9 8 -15z m75 -69 c3 -5 1 -10 -4 -10 -6 0 -11 5 -11 10 0 6 2 10
4 10 3 0 8 -4 11 -10z m95 -60 c0 -5 -4 -10 -10 -10 -5 0 -10 5 -10 10 0 6 5
10 10 10 6 0 10 -4 10 -10z m120 -24 c0 -2 -7 -7 -16 -10 -8 -3 -12 -2 -9 4 6
10 25 14 25 6z m227 -52 c-3 -3 -12 -4 -19 -1 -8 3 -5 6 6 6 11 1 17 -2 13 -5z
m503 -34 c0 -5 -4 -10 -10 -10 -5 0 -10 5 -10 10 0 6 5 10 10 10 6 0 10 -4 10
-10z m-1233 -54 c0 -8 -6 -12 -15 -9 -11 5 -11 7 0 14 7 5 13 9 14 9 0 0 1 -6
1 -14z m-72 -36 c3 -5 1 -10 -4 -10 -6 0 -11 5 -11 10 0 6 2 10 4 10 3 0 8 -4
11 -10z m333 -17 c-10 -2 -28 -2 -40 0 -13 2 -5 4 17 4 22 1 32 -1 23 -4z
m175 -6 c4 -10 -6 -13 -34 -13 -21 0 -39 4 -39 9 0 5 14 7 30 5 17 -3 30 -1
30 4 0 12 7 10 13 -5z m-443 -7 c0 -5 -7 -7 -15 -4 -8 4 -15 8 -15 10 0 2 7 4
15 4 8 0 15 -4 15 -10z m85 -21 c4 -5 -5 -9 -19 -9 -14 0 -26 4 -26 8 0 11 39
12 45 1z m690 -3 c11 -2 -41 -3 -115 -3 -74 -1 -122 2 -106 6 28 6 179 4 221
-3z m-621 -16 c15 -5 28 -6 31 0 3 5 15 6 28 1 12 -5 30 -7 40 -6 9 2 17 -1
17 -5 0 -9 -104 -7 -130 3 -8 3 -22 8 -30 10 -12 4 -12 6 2 6 9 1 28 -3 42 -9z
m300 -41 c8 -9 8 -10 -3 -4 -8 5 -35 8 -60 7 -30 -1 -39 1 -27 6 26 11 76 6
90 -9z m341 0 c-22 -4 -65 -7 -95 -7 l-55 1 65 7 c36 4 79 7 95 7 24 1 22 -1
-10 -8z"/>
</g>
</svg>
